<svg xmlns="http://www.w3.org/2000/svg" viewBox="0 0 500 500"><g id="freepik--background-complete--inject-22"><polygon points="107.43 435.34 107.43 465.87 152.08 465.87 201.32 465.87 201.32 435.34 107.43 435.34" style="fill:#f5f5f5"></polygon><polygon points="103.49 426.81 103.49 435.34 204.61 435.34 204.61 426.81 152.08 426.81 103.49 426.81" style="fill:#e0e0e0"></polygon><polygon points="154.05 465.87 201.32 465.87 201.32 435.34 204.61 435.34 204.61 426.81 152.08 426.81 152.08 434.55 154.05 465.87" style="fill:#e0e0e0"></polygon><rect x="120.56" y="440.26" width="19.04" height="4.6" style="fill:#e0e0e0"></rect><rect x="118.11" y="450.61" width="24.45" height="9.7" style="fill:#fff"></rect><polygon points="121.88 396.32 121.88 426.85 166.53 426.85 215.77 426.85 215.77 396.32 121.88 396.32" style="fill:#f5f5f5"></polygon><polygon points="117.94 387.78 117.94 396.32 219.05 396.32 219.05 387.78 166.53 387.78 117.94 387.78" style="fill:#e0e0e0"></polygon><polygon points="168.5 426.85 215.77 426.85 215.77 396.32 219.05 396.32 219.05 387.78 166.53 387.78 166.53 395.53 168.5 426.85" style="fill:#e0e0e0"></polygon><rect x="135.01" y="401.24" width="19.04" height="4.6" style="fill:#e0e0e0"></rect><rect x="132.56" y="411.58" width="24.45" height="9.7" style="fill:#fff"></rect><path d="M122.37,59.74a33.55,33.55,0,0,1,8.1-3.52l1.66-8L145.66,48l2,7.94a33.32,33.32,0,0,1,8.21,3.23l6.84-4.48,9.74,9.4-4.24,7a33.16,33.16,0,0,1,3.52,8.1l8,1.66.23,13.54L172,96.3a33.32,33.32,0,0,1-3.23,8.21l4.48,6.84-9.4,9.74-7-4.24a33.16,33.16,0,0,1-8.1,3.52l-1.66,8-13.53.23-2-7.94a33.32,33.32,0,0,1-8.21-3.23l-6.84,4.48-9.74-9.4,4.24-7a33.1,33.1,0,0,1-3.52-8.09l-8-1.67-.23-13.53,7.94-1.95a33.32,33.32,0,0,1,3.23-8.21L106,65.24l9.4-9.74,7,4.24Zm7.22,18a14.52,14.52,0,1,0,20.53-.36A14.52,14.52,0,0,0,129.59,77.77Z" style="fill:#ebebeb"></path><path d="M340.08,43.61a39.53,39.53,0,0,1,9.64-4.19l2-9.54,16.11-.28,2.32,9.46a39.5,39.5,0,0,1,9.78,3.85l8.15-5.34,11.6,11.2-5.05,8.33a39.36,39.36,0,0,1,4.19,9.64l9.54,2,.28,16.12-9.46,2.32a39.89,39.89,0,0,1-3.85,9.78l5.34,8.15-11.2,11.59-8.33-5.05a39,39,0,0,1-9.64,4.19l-2,9.54-16.12.29-2.32-9.47a39.12,39.12,0,0,1-9.78-3.85l-8.15,5.34-11.59-11.19,5.05-8.33a39.15,39.15,0,0,1-4.19-9.64l-9.54-2-.29-16.12,9.47-2.32a39.42,39.42,0,0,1,3.85-9.78l-5.34-8.14,11.19-11.6,8.33,5Zm8.6,21.47a17.29,17.29,0,1,0,24.45-.43A17.3,17.3,0,0,0,348.68,65.08Z" style="fill:#ebebeb"></path><path d="M342.52,174.48a30.76,30.76,0,0,1,7.53-3.27l1.55-7.45,12.59-.23,1.81,7.4a31,31,0,0,1,7.64,3l6.37-4.17,9.05,8.75-3.94,6.5a30.76,30.76,0,0,1,3.27,7.53l7.45,1.55.23,12.59-7.4,1.82a31.12,31.12,0,0,1-3,7.64l4.17,6.36-8.75,9.06-6.5-3.95a31.17,31.17,0,0,1-7.53,3.28l-1.55,7.45-12.59.22-1.82-7.39a31,31,0,0,1-7.64-3l-6.36,4.17L328,223.58l3.95-6.5a31.17,31.17,0,0,1-3.28-7.53L321.26,208,321,195.41l7.39-1.81a31,31,0,0,1,3-7.64l-4.17-6.37,8.74-9.06,6.51,3.95Zm6.71,16.77a13.51,13.51,0,1,0,19.1-.33A13.51,13.51,0,0,0,349.23,191.25Z" style="fill:#e0e0e0"></path><path d="M409.73,135.74a17.38,17.38,0,0,1,4.18-1.82l.86-4.14,7-.12,1,4.11a16.71,16.71,0,0,1,4.24,1.67l3.54-2.32,5,4.86-2.19,3.61a17.06,17.06,0,0,1,1.82,4.19l4.14.86.12,7-4.11,1a17.21,17.21,0,0,1-1.66,4.24l2.31,3.54-4.86,5-3.61-2.19a17.38,17.38,0,0,1-4.18,1.82l-.87,4.14-7,.12-1-4.11a17.24,17.24,0,0,1-4.24-1.67l-3.54,2.32-5-4.86,2.19-3.61a17.45,17.45,0,0,1-1.82-4.19l-4.14-.86-.12-7,4.11-1a17.24,17.24,0,0,1,1.67-4.24l-2.32-3.54,4.86-5,3.62,2.19Zm3.72,9.32a7.5,7.5,0,1,0,10.62-.19A7.5,7.5,0,0,0,413.45,145.06Z" style="fill:#f5f5f5"></path><path d="M209.89,43.63a17,17,0,0,1,4.18-1.82l.86-4.14,7-.12,1,4.1a17.49,17.49,0,0,1,4.24,1.67L230.71,41l5,4.86-2.19,3.61a17,17,0,0,1,1.82,4.18l4.14.86.12,7-4.11,1a17.21,17.21,0,0,1-1.66,4.24l2.31,3.54-4.86,5-3.61-2.19A17,17,0,0,1,223.52,75l-.87,4.14-7,.13-1-4.11a17.24,17.24,0,0,1-4.24-1.67l-3.54,2.32-5-4.86L204,67.29a17.38,17.38,0,0,1-1.82-4.18l-4.13-.86-.13-7,4.11-1A17.16,17.16,0,0,1,203.73,50l-2.32-3.53,4.86-5,3.62,2.19ZM213.61,53a7.5,7.5,0,1,0,10.62-.19A7.51,7.51,0,0,0,213.61,53Z" style="fill:#f5f5f5"></path><path d="M146.9,156.58a17,17,0,0,1,4.18-1.82l.86-4.14,7-.12,1,4.11a16.78,16.78,0,0,1,4.25,1.67l3.53-2.32,5,4.86-2.2,3.61a16.9,16.9,0,0,1,1.82,4.19l4.14.86.12,7-4.1,1a17.24,17.24,0,0,1-1.67,4.24l2.31,3.54-4.85,5-3.62-2.19a17.38,17.38,0,0,1-4.18,1.82l-.86,4.14-7,.12-1-4.11a17.16,17.16,0,0,1-4.25-1.67l-3.53,2.32-5-4.86,2.2-3.61a17.06,17.06,0,0,1-1.82-4.19l-4.14-.86-.13-7,4.11-1a17.09,17.09,0,0,1,1.67-4.24l-2.32-3.54,4.86-5,3.62,2.19Zm3.73,9.32a7.5,7.5,0,1,0,10.61-.19A7.5,7.5,0,0,0,150.63,165.9Z" style="fill:#f5f5f5"></path></g><g id="freepik--Floor--inject-22"><path d="M462.67,466.85c0,.14-95.22.26-212.66.26S37.33,467,37.33,466.85s95.2-.26,212.68-.26S462.67,466.71,462.67,466.85Z" style="fill:#263238"></path></g><g id="freepik--Device--inject-22"><path d="M322.25,466.66l-129.68-.08c-15.6,0-28.24-13.3-28.23-29.69l.06-341.67c0-16.4,12.66-29.69,28.27-29.68l129.68.08c15.6,0,28.24,13.3,28.23,29.69L350.52,437C350.52,453.38,337.86,466.67,322.25,466.66Z" style="fill:#263238"></path><path d="M322.21,77.7H297.07c-3.37,0-6.11,3-6.11,6.7v4.79c0,3.71-2.73,6.71-6.1,6.71l-49,0c-3.38,0-6.11-3-6.11-6.71v-4.8c0-3.7-2.73-6.71-6.1-6.71H214.8l-22,0c-10.93,0-19.8,9.3-19.8,20.79l-.06,333.5c0,11.48,8.85,20.79,19.77,20.79l129.43.08c10.93,0,19.79-9.3,19.79-20.79L342,98.5C342,87,333.14,77.71,322.21,77.7Z" style="fill:#fff"></path><path d="M281.24,241.47a9,9,0,1,1-9-9A9,9,0,0,1,281.24,241.47Z" style="fill:#FF725E"></path><ellipse cx="245.46" cy="241.47" rx="9.6" ry="9.62" style="fill:#FF725E"></ellipse><ellipse cx="224.89" cy="224.45" rx="10.19" ry="10.21" style="fill:#FF725E"></ellipse><ellipse cx="220.72" cy="198.27" rx="10.64" ry="10.67" style="fill:#FF725E"></ellipse><ellipse cx="233.75" cy="175.36" rx="11" ry="11.03" style="fill:#FF725E"></ellipse><ellipse cx="258.8" cy="166.3" rx="11.99" ry="12.02" style="fill:#FF725E"></ellipse><path d="M300.82,224.24a8.71,8.71,0,1,1-8.71-8.73A8.72,8.72,0,0,1,300.82,224.24Z" style="fill:#FF725E"></path><ellipse cx="296.77" cy="197.98" rx="8.08" ry="8.1" style="fill:#FF725E"></ellipse><ellipse cx="283.33" cy="175.05" rx="7.38" ry="7.4" style="fill:#FF725E"></ellipse><g style="opacity:0.5"><path d="M281.24,241.47a9,9,0,1,1-9-9A9,9,0,0,1,281.24,241.47Z" style="fill:#fff"></path></g><g style="opacity:0.4"><ellipse cx="245.46" cy="241.47" rx="9.6" ry="9.62" style="fill:#fff"></ellipse></g><g style="opacity:0.30000000000000004"><ellipse cx="224.89" cy="224.45" rx="10.19" ry="10.21" style="fill:#fff"></ellipse></g><g style="opacity:0.2"><ellipse cx="220.72" cy="198.27" rx="10.64" ry="10.67" style="fill:#fff"></ellipse></g><g style="opacity:0.1"><ellipse cx="233.75" cy="175.36" rx="11" ry="11.03" style="fill:#fff"></ellipse></g><g style="opacity:0.2"><ellipse cx="258.8" cy="166.3" rx="11.99" ry="12.02" style="fill:#fff"></ellipse></g><g style="opacity:0.6000000000000001"><path d="M300.82,224.24a8.71,8.71,0,1,1-8.71-8.73A8.72,8.72,0,0,1,300.82,224.24Z" style="fill:#fff"></path></g><g style="opacity:0.7000000000000001"><ellipse cx="296.77" cy="197.98" rx="8.08" ry="8.1" style="fill:#fff"></ellipse></g><g style="opacity:0.8"><ellipse cx="283.33" cy="175.05" rx="7.38" ry="7.4" style="fill:#fff"></ellipse></g><path d="M230.06,328a3.18,3.18,0,0,1,3.32-3.23,3.08,3.08,0,0,1,2.32.93l-.43.42a2.53,2.53,0,0,0-1.87-.75,2.63,2.63,0,1,0,0,5.26,2.5,2.5,0,0,0,1.87-.76l.43.42a3.1,3.1,0,0,1-2.33.94A3.18,3.18,0,0,1,230.06,328Z" style="fill:#263238"></path><path d="M242.42,324.77v6.35h-.66v-2.93h-4v2.93h-.67v-6.35h.67v2.84h4v-2.84Z" style="fill:#263238"></path><path d="M249,330.54v.58h-4.48v-6.35h4.34v.58h-3.67v2.26h3.28v.58h-3.28v2.35Z" style="fill:#263238"></path><path d="M249.94,328a3.18,3.18,0,0,1,3.32-3.23,3.08,3.08,0,0,1,2.32.93l-.43.42a2.53,2.53,0,0,0-1.87-.75,2.63,2.63,0,1,0,0,5.26,2.5,2.5,0,0,0,1.87-.76l.43.42a3.1,3.1,0,0,1-2.33.94A3.18,3.18,0,0,1,249.94,328Z" style="fill:#263238"></path><path d="M259,328.14l-1.3,1.32v1.66H257v-6.35h.67v3.84l3.72-3.84h.77l-2.74,2.88,2.93,3.47h-.79Z" style="fill:#263238"></path><path d="M263.44,324.77h.67v6.35h-.67Z" style="fill:#263238"></path><path d="M271.46,324.77v6.35h-.55L266.84,326v5.15h-.67v-6.35h.55l4.08,5.16v-5.16Z" style="fill:#263238"></path><path d="M278,328h.64v2.42a3.47,3.47,0,0,1-2.32.81,3.23,3.23,0,1,1,0-6.46,3.13,3.13,0,0,1,2.36.92l-.42.42a2.68,2.68,0,1,0-1.92,4.52,2.77,2.77,0,0,0,1.66-.49Z" style="fill:#263238"></path><path d="M280.06,330.67a.48.48,0,0,1,.48-.49.49.49,0,0,1,.49.49.5.5,0,0,1-.49.5A.49.49,0,0,1,280.06,330.67Z" style="fill:#263238"></path><path d="M282,330.67a.48.48,0,0,1,.48-.49.49.49,0,0,1,.49.49.5.5,0,0,1-.49.5A.48.48,0,0,1,282,330.67Z" style="fill:#263238"></path><path d="M283.9,330.67a.48.48,0,0,1,.48-.49.48.48,0,0,1,.48.49.49.49,0,0,1-.48.5A.48.48,0,0,1,283.9,330.67Z" style="fill:#263238"></path><rect x="196.48" y="288.03" width="122.07" height="24.3" rx="11.22" style="fill:#f5f5f5"></rect><rect x="196.48" y="288.03" width="67.86" height="24.3" rx="11.22" style="fill:#FF725E"></rect><path d="M293.52,302c0,1.26-.87,2.22-2.63,2.22a3.58,3.58,0,0,1-2.64-1l.28-.42a3.15,3.15,0,0,0,2.35.93c1.39,0,2.1-.7,2.1-1.7s-.66-1.73-2.7-1.73h-1.52l.4-3.65h4v.5h-3.52l-.29,2.65h1.07C292.69,299.75,293.52,300.62,293.52,302Z" style="fill:#FF725E"></path><path d="M299.46,302c0,1.26-.87,2.22-2.63,2.22a3.58,3.58,0,0,1-2.64-1l.28-.42a3.15,3.15,0,0,0,2.35.93c1.39,0,2.09-.7,2.09-1.7s-.65-1.73-2.69-1.73H294.7l.39-3.65h4v.5h-3.53l-.28,2.65h1.07C298.62,299.75,299.46,300.62,299.46,302Z" style="fill:#FF725E"></path><path d="M300.28,298.59c0-1.22.68-2,1.65-2s1.67.81,1.67,2-.69,2-1.67,2S300.28,299.82,300.28,298.59Zm2.91,0c0-1-.51-1.66-1.26-1.66s-1.24.63-1.24,1.66.5,1.67,1.24,1.67S303.19,299.63,303.19,298.59Zm3.32-2H307l-5.13,7.53h-.46Zm-1.74,5.54c0-1.23.68-2,1.66-2s1.65.8,1.65,2-.67,2-1.65,2S304.77,303.37,304.77,302.14Zm2.9,0c0-1-.5-1.67-1.24-1.67s-1.26.63-1.26,1.67.51,1.67,1.26,1.67S307.67,303.17,307.67,302.14Z" style="fill:#FF725E"></path><g style="opacity:0.2"><polygon points="225.99 288.03 216.87 312.04 223.57 312.04 232.08 288.03 225.99 288.03" style="fill:#fff"></polygon></g><g style="opacity:0.2"><polygon points="242.45 288.03 233.32 312.04 240.03 312.04 248.53 288.03 242.45 288.03" style="fill:#fff"></polygon></g><g style="opacity:0.2"><path d="M258.57,289.84l-8.5,22.35h4a15.72,15.72,0,0,0,3.08-1L263,294.63A13,13,0,0,0,258.57,289.84Z" style="fill:#fff"></path></g><g style="opacity:0.2"><path d="M210,288l-8.39,22.08a12,12,0,0,0,6,1.93l8.51-24Z" style="fill:#fff"></path></g><path d="M307.11,312.33a16.17,16.17,0,0,0,2.73-.4,11.38,11.38,0,0,0,6.4-4.35,11.13,11.13,0,0,0,2.07-5.24,20.68,20.68,0,0,0,.08-3.27,11.06,11.06,0,0,0-.68-3.43,11.26,11.26,0,0,0-8.8-7.27,31.43,31.43,0,0,0-4.49-.15l-96.5.08a12.55,12.55,0,0,0-3.39.52,12,12,0,0,0-3.05,1.53,11.18,11.18,0,0,0-4,5.3c-1.35,4.21-.91,9.29,2,12.55a11.2,11.2,0,0,0,5.36,3.44c2,.62,4.23.39,6.37.44h12.54l43.38.05,29.25.09,8,0,2.06,0,.71,0-.71,0-2.06,0-8,.05-29.25.08-43.38.06H208a12.66,12.66,0,0,1-3.28-.46,11.7,11.7,0,0,1-8.38-9.78,22.09,22.09,0,0,1-.08-3.45,11.19,11.19,0,0,1,.69-3.43,11.73,11.73,0,0,1,4.25-5.56,12.52,12.52,0,0,1,3.19-1.59,13,13,0,0,1,3.55-.55l96.5.07A31,31,0,0,1,309,288a11.53,11.53,0,0,1,9,7.52c1.46,4.76.6,9.41-1.58,12.16a11.39,11.39,0,0,1-6.54,4.34,7.9,7.9,0,0,1-1.19.21,4.87,4.87,0,0,1-.87.07C307.35,312.34,307.11,312.33,307.11,312.33Z" style="fill:#263238"></path><path d="M208.29,421.31v8.16a.9.9,0,0,1-1.38.76l-6.42-4.08a.91.91,0,0,1,0-1.52l6.42-4.08A.9.9,0,0,1,208.29,421.31Z" style="fill:#e0e0e0"></path><path d="M261,425.31a5.63,5.63,0,1,1-5.63-5.64A5.63,5.63,0,0,1,261,425.31Z" style="fill:#e0e0e0"></path><rect x="301.44" y="420.41" width="10.38" height="10.41" rx="1.87" style="fill:#e0e0e0"></rect></g><g id="freepik--character-2--inject-22"><path d="M429.55,286.89a72.24,72.24,0,0,0,.68-12.37,25.06,25.06,0,0,0-3.39-11.8c-.33-.53-2.94-4-3.54-3.84-.43.13,1.43,3.5,1.28,3.93a21.34,21.34,0,0,0,.12,12.63,55.69,55.69,0,0,0,4.85,11.45" style="fill:#263238"></path><path d="M411.37,314c-.61-2.86-1.1-5.11-1.12-5.1s-10,1-12.64-8.61c-1.26-4.64-3.08-14.4-4.63-23.25a18.54,18.54,0,0,1,13.62-21.14l.93-.24c10.17-2,17.56,5.51,19.29,15.73L434,306.92l-15.79,16.75Z" style="fill:#ffbe9d"></path><path d="M410.25,308.85a24.07,24.07,0,0,0,11.58-7s-1.16,7.93-11,9.55Z" style="fill:#eb996e"></path><path d="M398,284.61a1.42,1.42,0,0,0,1.69,1,1.35,1.35,0,0,0,1.09-1.61,1.41,1.41,0,0,0-1.68-1A1.36,1.36,0,0,0,398,284.61Z" style="fill:#263238"></path><path d="M396.07,280.45c.22.14,1.06-.9,2.54-1.28s2.76.08,2.88-.15-.2-.38-.77-.6a3.91,3.91,0,0,0-2.35-.11,3.84,3.84,0,0,0-2,1.25C396,280,396,280.39,396.07,280.45Z" style="fill:#263238"></path><path d="M411.39,281.93a1.42,1.42,0,0,0,1.69,1,1.35,1.35,0,0,0,1.1-1.6,1.43,1.43,0,0,0-1.69-1.05A1.37,1.37,0,0,0,411.39,281.93Z" style="fill:#263238"></path><path d="M410.73,277.29c.22.14,1.06-.9,2.54-1.28s2.76.08,2.87-.14-.2-.38-.76-.6a3.8,3.8,0,0,0-2.36-.11,3.74,3.74,0,0,0-2,1.24C410.7,276.87,410.62,277.24,410.73,277.29Z" style="fill:#263238"></path><path d="M408.37,290a10.93,10.93,0,0,0-2.52.19c-.39.06-.77.08-.9-.16a2.07,2.07,0,0,1,0-1.19c.12-1,.25-2.06.38-3.17.49-4.5.74-8.16.56-8.17s-.73,3.61-1.22,8.11c-.11,1.11-.22,2.16-.32,3.17a2.29,2.29,0,0,0,.19,1.54,1,1,0,0,0,.76.39,2.62,2.62,0,0,0,.67-.08A9.93,9.93,0,0,0,408.37,290Z" style="fill:#263238"></path><path d="M413,289.94c-.25.05.17,1.66-.91,3.15s-2.84,1.77-2.79,2,.46.22,1.19.05a4.17,4.17,0,0,0,2.35-1.57,3.58,3.58,0,0,0,.66-2.62C413.38,290.25,413.09,289.9,413,289.94Z" style="fill:#263238"></path><path d="M409.25,271.27c.25.36,1.68-.21,3.47-.45s3.32-.13,3.46-.55c.06-.2-.29-.52-.95-.76a5.8,5.8,0,0,0-2.73-.23,5.91,5.91,0,0,0-2.55,1C409.38,270.69,409.14,271.09,409.25,271.27Z" style="fill:#263238"></path><path d="M395.41,275.37c.35.27,1.28-.34,2.5-.68s2.32-.36,2.47-.77c.06-.2-.19-.49-.73-.69a3.71,3.71,0,0,0-4,1.17C395.31,274.86,395.25,275.24,395.41,275.37Z" style="fill:#263238"></path><path d="M427.88,278.68c.15-.11,6.11-3.67,7.61,3s-5.48,6.77-5.54,6.58S427.88,278.68,427.88,278.68Z" style="fill:#ffbe9d"></path><path d="M431.41,285.26s.14.05.35.1a1.2,1.2,0,0,0,.87-.18,2.9,2.9,0,0,0,.75-2.86,4,4,0,0,0-.7-1.59,1.35,1.35,0,0,0-1.07-.69.61.61,0,0,0-.61.47c-.05.21,0,.33,0,.35s-.17-.08-.17-.37A.74.74,0,0,1,431,280a.88.88,0,0,1,.61-.31,1.67,1.67,0,0,1,1.44.75,4,4,0,0,1,.81,1.76c.26,1.35-.14,2.76-1,3.25a1.23,1.23,0,0,1-1.1.06C431.46,285.42,431.39,285.28,431.41,285.26Z" style="fill:#eb996e"></path><path d="M394.9,265c-1.2-.36,1.28-4.55,3.66-6.32,3.61-2.68,9.48-5.12,13.39-4.87,4.71.3,8.87,1.72,12,5.27a26.83,26.83,0,0,1,5.82,12.73,8.24,8.24,0,0,1-.06,4.27c-.61,1.67-2.2,3-1.68,5a2.85,2.85,0,0,1-.25,2.18c-.94,1.56-2.69.67-3.64-.41-2-2.29-2.86-5.36-3.63-8.32a19.84,19.84,0,0,1-.95-6.42c.09-1.18.38-2.34.41-3.52a4.1,4.1,0,0,0-1.19-3.22,5.44,5.44,0,0,0-.66-.43,7.1,7.1,0,0,0-7.17.18c-3.46,2.13-9.43,5.49-11.37,4.58a10.44,10.44,0,0,1-3.63-2.38Z" style="fill:#263238"></path><path d="M410.51,250.15c.46-.05,11.72-.34,16.39,6.92s4.5,9.89,4.5,9.89a5.44,5.44,0,0,1,1.36.67c.57.41.56,3.08-.9,3.15-11.57-2-24,.68-37.61,4.57l-10.54,2.53c-2.85,1.09-4.08.57-3-.49.81-.8,8.31-6.26,8.31-6.26l1.33-1.62,2.82-7.11s-.75-.7.14-1.66S401.52,251.14,410.51,250.15Z" style="fill:#FF725E"></path><path d="M390.32,269.51a2.83,2.83,0,0,0,.41-.1l1.17-.32c1-.3,2.48-.66,4.31-1.08a84.26,84.26,0,0,1,14.53-1.83,130.67,130.67,0,0,1,14.66.32c1.88.13,3.39.27,4.44.36l1.2.1.42,0-.41-.06-1.21-.13c-1-.11-2.55-.27-4.43-.41a118.27,118.27,0,0,0-14.67-.38,81,81,0,0,0-14.56,1.88C392.52,268.74,390.32,269.51,390.32,269.51Z" style="fill:#263238"></path><g style="opacity:0.30000000000000004"><path d="M421.42,252.36s-11.95,1-16.46,4.82l.52-.45-4.32,3.37a3.11,3.11,0,0,1-2.49.95,23.31,23.31,0,0,1,6.39-5.82C409.45,252.39,416.9,249.76,421.42,252.36Z"></path></g><path d="M421.6,252.38a8.7,8.7,0,0,0-1.2-.41,14.78,14.78,0,0,0-3.41-.54,17.8,17.8,0,0,0-5.1.54,14.85,14.85,0,0,0-5.66,2.67,25.55,25.55,0,0,0-2.4,2.21c-.73.75-1.47,1.44-2.11,2.17a14.87,14.87,0,0,1-1.87,2,5.23,5.23,0,0,1-2.1,1c-2.81.75-4.69.6-4.61.39a.4.4,0,0,0,.28.17,3.43,3.43,0,0,0,.94.07,15.82,15.82,0,0,0,3.42-.51,5.17,5.17,0,0,0,2.17-1,15.66,15.66,0,0,0,1.9-2c.63-.71,1.38-1.41,2.11-2.16a26.32,26.32,0,0,1,2.38-2.18,14.85,14.85,0,0,1,5.59-2.66,17.92,17.92,0,0,1,5.05-.57,15.44,15.44,0,0,1,3.41.48l.9.25A2.3,2.3,0,0,0,421.6,252.38Z" style="fill:#263238"></path><g style="opacity:0.30000000000000004"><path d="M428.73,260.13a27.54,27.54,0,0,1-5.91.44c-2.3.07-4.55.24-6.85.21-1.74,0-3.77.07-5.13-.84a2.45,2.45,0,0,0,1.29,2,11.93,11.93,0,0,0,3.88.66,62.39,62.39,0,0,0,13.65-.79,13.88,13.88,0,0,0-.93-1.72"></path></g><path d="M426.35,256.28c1.44.24,2.34.42,2.66,1.52.26.91.36,2.09-.51,2.48a2.21,2.21,0,0,1-.85.15l-14.93.74a2.15,2.15,0,0,1-1.46-.27,1.49,1.49,0,0,1,0-2.08,4,4,0,0,1,2.05-1,48.87,48.87,0,0,1,13-1.51" style="fill:#FF725E"></path><path d="M411.53,261.05a1.45,1.45,0,0,1-.54-.52,1.86,1.86,0,0,1,.13-1.94,4.57,4.57,0,0,1,2.7-1.36c1.15-.23,2.43-.47,3.77-.67a38.61,38.61,0,0,1,6.93-.5c.89,0,1.6.08,2.1.12l.57.06h.2l-.19-.05-.57-.09c-.5-.06-1.22-.15-2.11-.18a35.78,35.78,0,0,0-7,.45c-1.34.2-2.62.45-3.77.69a4.62,4.62,0,0,0-2.77,1.44,1.92,1.92,0,0,0-.09,2.06,1.17,1.17,0,0,0,.42.4Z" style="fill:#263238"></path><polygon points="392.26 264.63 401.14 262.18 401.03 264.89 391.26 267.15 392.26 264.63" style="fill:#fff"></polygon><path d="M407.78,269.14c0-.05-4.13.39-9.22,1s-9.2,1.12-9.2,1.17,4.14-.39,9.22-1S407.79,269.19,407.78,269.14Z" style="fill:#263238"></path><path d="M382.12,323.67l9,21.84,4-16.79a19.92,19.92,0,0,1,4.71-8.66,21.23,21.23,0,0,1,2.6-2.32h0l7.07,32.38s-6,18.44-20.25,18.87c-4.14.12-10.45-2.51-12.42-7.12-1-2.28-13.67-32.36-13.67-32.36Z" style="fill:#e0e0e0"></path><polygon points="385.97 341.13 386.48 337.9 375.87 328.9 373.99 331.01 367.94 337.94 390.8 356.48 396.31 349.86 385.97 341.13" style="fill:#263238"></polygon><path d="M471.69,381.59c.3-4.5-5.16-56-5.16-56l-11.71-17.3-22.33-3.93c-.34,2.72-2.09,9.82-11.3,12.44-4.74,1.35-9.89-3.38-9.89-3.38l-8.87,4.31,3.37,24.12,4.35,27.52,61.77,17.56S471.39,386.1,471.69,381.59Z" style="fill:#e0e0e0"></path><polygon points="412.92 372.23 410.15 339.03 442.45 332.49 471.48 375.45 472.33 390.13 427.69 388.74 412.92 372.23" style="fill:#FF725E"></polygon><path d="M404.58,329.09a8.28,8.28,0,0,1,.37,1.56c.21,1,.47,2.48.77,4.29.59,3.64,1.25,8.69,1.91,14.27s1.25,10.62,1.75,14.27c.25,1.75.45,3.2.6,4.31a9.27,9.27,0,0,1,.17,1.59,10.91,10.91,0,0,1-.37-1.56c-.21-1-.47-2.47-.76-4.29-.6-3.64-1.26-8.68-1.91-14.26s-1.26-10.63-1.76-14.27c-.24-1.75-.44-3.21-.6-4.32A10.66,10.66,0,0,1,404.58,329.09Z" style="fill:#263238"></path><path d="M386,341.07s4.33.55,5.85,1.34,5.95,3.72,5.95,3.72l8.92,1.69-2.13,14.74-6-3-13.16,1.31s-2.87-.66-2.87-2.71a5.42,5.42,0,0,1-2.55-3.86,60.45,60.45,0,0,1-3.84-5.51c-.32-.89,1.47-3,1.47-3s3.76,3.19,6,3.69,4.35-.4,4.55-1.87C388.64,344.66,386,341.07,386,341.07Z" style="fill:#ffbe9d"></path><g style="opacity:0.30000000000000004"><path d="M409.66,366.5s30,10.74,40,10.1c8.51-.54,12.7-4.53,13.38-10.1s1.61-29.26,1.61-29.26L448.6,365.11l-39.1-1.23Z"></path></g><path d="M458.3,365c2.16-6.16,4.53-18,4.53-18l3.73-19.73a21.4,21.4,0,0,0-4.86-14.14c-2.45-2.94-5.88-5.45-10.46-5.43-9.69,0-9.35,17.91-9.35,17.91l-2.64,25.59L401.31,345l-2.41,18.24,44.62,9.63a13.31,13.31,0,0,0,11-2.11A11.6,11.6,0,0,0,458.3,365Z" style="fill:#e0e0e0"></path><path d="M452.31,309.27c0,.08-.77.12-1.95.44a10.44,10.44,0,0,0-7,6c-.49,1.13-.64,1.89-.72,1.88a4.34,4.34,0,0,1,.37-2,9.7,9.7,0,0,1,7.22-6.24A4.4,4.4,0,0,1,452.31,309.27Z" style="fill:#263238"></path><path d="M466.56,327.26s0,.17-.06.48-.14.79-.24,1.38l-.95,5.32c-.43,2.31-.95,5.14-1.55,8.41s-1.31,7-2.26,11.09c-.47,2.05-1,4.19-1.58,6.4-.29,1.11-.62,2.23-1,3.37a23.2,23.2,0,0,1-1.31,3.43,10.78,10.78,0,0,1-2.21,3.11,12,12,0,0,1-3.31,2.13,13.85,13.85,0,0,1-8.08.85l-35.28-7.59-9.91-2.14-.24-.05,0-.23c.83-6.3,1.64-12.4,2.41-18.25l0-.25.25,0L439.28,351l-.21.16c.85-7.93,1.54-14.32,2-18.75.24-2.18.44-3.88.57-5.06.07-.56.12-1,.16-1.31s.07-.45.07-.45,0,.16,0,.45-.06.76-.11,1.32c-.11,1.18-.27,2.88-.48,5.07-.43,4.44-1.07,10.83-1.85,18.77l0,.19-.19,0-38-6.12.28-.21c-.76,5.84-1.56,11.94-2.39,18.24L399,363l9.91,2.13,35.26,7.63a13.32,13.32,0,0,0,7.8-.8,11,11,0,0,0,3.19-2,10.36,10.36,0,0,0,2.14-3,23.71,23.71,0,0,0,1.29-3.36c.35-1.13.68-2.25,1-3.35.61-2.21,1.13-4.34,1.61-6.38,1-4.08,1.72-7.79,2.33-11.07s1.19-6.08,1.64-8.39.8-4.06,1.05-5.3c.12-.58.22-1,.29-1.37S466.56,327.26,466.56,327.26Z" style="fill:#263238"></path><path d="M443.66,357.68a18,18,0,0,1-2.53-3.35c-.64-1-1.19-1.89-1.58-2.49a2,2,0,0,0-.89-.7s.12-.09.36-.05a1.58,1.58,0,0,1,.81.52,28.6,28.6,0,0,1,1.73,2.43A17.05,17.05,0,0,1,443.66,357.68Z" style="fill:#263238"></path><path d="M437.17,334.25s-6.75-17.12.29-25.49a8,8,0,0,1,6.72-2.76c2.22.17,5.17.6,7.06,1.69,0,0-6-1.07-8.49,1.58-1.84,2-6.27,8.31-1.6,23.48Z" style="fill:#FF725E"></path><path d="M410.27,339.83l-6.88-22.56a3.89,3.89,0,0,1,4.14-1.94l6.64,24.5Z" style="fill:#FF725E"></path><path d="M387.84,347.81c-.09.11-3.82-2.7-8.34-6.28a104.13,104.13,0,0,1-8-6.68c.09-.11,3.82,2.7,8.34,6.28A104.13,104.13,0,0,1,387.84,347.81Z" style="fill:#455a64"></path><polygon points="369.9 335.7 367.85 333.81 368.83 332.6 371.21 334.2 369.9 335.7" style="fill:#455a64"></polygon><path d="M350.62,306.2a3.55,3.55,0,0,1,2.44-4.29c3.72-1.1,9.46-2.47,11-1,2.37,2.17,8,7.42,8,7.42l7.82,16.23-12.66,3.73-3.6-12.35s-5.76.31-5.25-2.78c0,0-2.88-1.13-2.47-2.88s2.78-2.16,2.78-2.16l-.51-3.09-7.57,1.33Z" style="fill:#ffbe9d"></path><path d="M356.85,310.49h-6.38V303h6.38a3.76,3.76,0,0,1,3.76,3.76h0A3.77,3.77,0,0,1,356.85,310.49Z" style="fill:#455a64"></path><path d="M361.71,306.59l-9.58-2.47s-2.57-.72-1.23,2.06,5.35,2.16,6.89,3.81,2.42,4.43,8.81,5.46" style="fill:#ffbe9d"></path><path d="M366.6,315.45a5.91,5.91,0,0,1-1.27-.14,13.55,13.55,0,0,1-3.31-1.06,8.69,8.69,0,0,1-2-1.35,14.82,14.82,0,0,1-1.82-2.08c-1-1.73-3.36-1.64-5.44-2.59a4.66,4.66,0,0,1-1.42-1,4.52,4.52,0,0,1-.87-1.45,3.15,3.15,0,0,1-.19-.83,1.12,1.12,0,0,1,.34-.89,1.89,1.89,0,0,1,1.65-.16l4.94,1.33,3.32.94a6.62,6.62,0,0,1,1.2.41,5.34,5.34,0,0,1-1.25-.21l-3.37-.79-5-1.22a1.45,1.45,0,0,0-1.19.08c-.25.19-.18.71,0,1.16a4.14,4.14,0,0,0,.76,1.28,4.54,4.54,0,0,0,1.27.87,27.12,27.12,0,0,0,3.05,1,5.39,5.39,0,0,1,1.47.66,5.07,5.07,0,0,1,1.07,1.11,15.31,15.31,0,0,0,1.74,2.06,9.27,9.27,0,0,0,1.89,1.34A26.26,26.26,0,0,0,366.6,315.45Z" style="fill:#eb996e"></path><path d="M366,362.11a6.66,6.66,0,0,1-5.56-3.31,9.9,9.9,0,0,1-.4-8.77c.08-.18.16-.37.25-.54l-.09-.23a16.73,16.73,0,0,1-.9-5.25c-.36-5.86-.7-11.31-1-16.75s-.66-10.92-1-16.79l.5,0c.36,5.87.7,11.33,1,16.79s.66,10.89,1,16.75a16.57,16.57,0,0,0,.81,5,4.89,4.89,0,0,1,2.89-2.36,3.14,3.14,0,0,1,2.51.52,2.89,2.89,0,0,1,1.25,2.09,3.18,3.18,0,0,1-3.34,3.38,4.53,4.53,0,0,1-3.34-2.52l-.08.18a9.4,9.4,0,0,0,.36,8.31,5.85,5.85,0,0,0,6.7,2.81c2.33-.84,4.15-3.65,4.42-6.85a17,17,0,0,0-2-8.71c-.64-1.34-1.38-2.65-2.09-3.92s-1.48-2.64-2.13-4a7.56,7.56,0,0,1-.91-3.23,3,3,0,0,1,1.62-2.86,1.82,1.82,0,0,1,2.38,1.84l-.49,0a1.26,1.26,0,0,0-.52-1.1,1.29,1.29,0,0,0-1.19-.23,2.57,2.57,0,0,0-1.3,2.4,7.23,7.23,0,0,0,.86,3c.64,1.37,1.39,2.7,2.12,4s1.45,2.59,2.1,3.95a17.39,17.39,0,0,1,2,9c-.24,2.86-1.8,6.22-4.74,7.28A5.15,5.15,0,0,1,366,362.11Zm-5.15-12.61a4.26,4.26,0,0,0,3.12,2.58,2.57,2.57,0,0,0,2-.81,2.48,2.48,0,0,0,.77-2,2.4,2.4,0,0,0-1-1.73,2.61,2.61,0,0,0-2.1-.45A4.68,4.68,0,0,0,360.88,349.5Z" style="fill:#455a64"></path><path d="M424.24,454.09l23.12-7.91S463.16,467,467.58,466L453.86,420.6l-36.54,10.84Z" style="fill:#455a64"></path><path d="M441.15,432.74a1.93,1.93,0,0,1,1.73-1.92,1.86,1.86,0,0,1,1.92,1.69,2.05,2.05,0,0,1-1.84,2,1.93,1.93,0,0,1-1.8-2" style="fill:#e0e0e0"></path><path d="M454.8,420.28l-3.54,1,13.47,43.56s1.5,1.76,2.85,1.1Z" style="fill:#e0e0e0"></path><path d="M447.35,447c.22-.07,0-1.21.37-2.51s1.14-2.17,1-2.35-1.33.54-1.77,2.13S447.16,447.09,447.35,447Z" style="fill:#263238"></path><path d="M450.76,451.15c.23,0,.32-1.09,1-2.13s1.63-1.55,1.56-1.77-1.38,0-2.24,1.33S450.55,451.21,450.76,451.15Z" style="fill:#263238"></path><path d="M457.27,452.13c0-.22-1.21-.19-2.25.75s-1.21,2.11-1,2.15.67-.8,1.54-1.55S457.32,452.36,457.27,452.13Z" style="fill:#263238"></path><path d="M441.88,448.2c.18-.15-.44-1.08-.73-2.36s-.19-2.37-.42-2.43-.73,1.12-.36,2.62S441.74,448.36,441.88,448.2Z" style="fill:#263238"></path><path d="M421.43,392.43c-.89-.24-40.05,41.76-40.94,48.71s.53,13,5.16,16.9,57.31-8.9,57.31-8.9l-5-22.07,19-6.4-17-31.15Z" style="fill:#FF725E"></path><g style="opacity:0.30000000000000004"><path d="M412.16,401.74l-1.25,1.35s22.44,23.55,29.33,23.22l11-3.73L414,399.7Z"></path></g><path d="M438.11,427.65c0,.14-8.13,2.66-18.24,5.63s-18.36,5.27-18.4,5.13,8.13-2.65,18.25-5.63S438.07,427.51,438.11,427.65Z" style="fill:#263238"></path><path d="M389.21,430.08l7.61,24.14s-22,15.85-21,20.45l47.35-13.08-10.31-38.11Z" style="fill:#455a64"></path><path d="M410.89,448.13a2,2,0,0,1,1.95,1.83,1.93,1.93,0,0,1-1.81,2,2.12,2.12,0,0,1-2-2c.07-1,1.14-2,2.1-1.81" style="fill:#e0e0e0"></path><path d="M423.46,462.58l-1-3.7L377,471.75s-1.86,1.5-1.21,2.92Z" style="fill:#e0e0e0"></path><path d="M396,454.19c.08.23,1.26,0,2.6.45s2.22,1.23,2.41,1.08-.53-1.39-2.16-1.88S395.88,454,396,454.19Z" style="fill:#263238"></path><path d="M391.59,457.62c0,.24,1.11.35,2.17,1.11s1.57,1.74,1.79,1.66,0-1.42-1.31-2.34S391.53,457.4,391.59,457.62Z" style="fill:#263238"></path><path d="M390.41,464.34c.22,0,.22-1.25-.72-2.35s-2.16-1.31-2.21-1.09.81.71,1.57,1.63S390.17,464.38,390.41,464.34Z" style="fill:#263238"></path><path d="M394.86,448.5c.15.18,1.13-.43,2.46-.7s2.46-.14,2.53-.38-1.14-.78-2.71-.44S394.7,448.35,394.86,448.5Z" style="fill:#263238"></path><g style="opacity:0.30000000000000004"><polygon points="423.49 453.54 420.57 442.09 422.75 441.08 409.5 405.02 406.97 407.22 417.38 440.25 421.11 454.04 423.49 453.54"></polygon></g><path d="M392.23,364.28a18.56,18.56,0,0,0-14.9,3.2,13.65,13.65,0,0,0-5.56,13.67c2.13,15,21.24,66,21.24,66l26.44-7.95c.15,0,.3-.48.21-.35-.21.35-13.41-42.16-13.08-41.66S433.26,419,444.2,422.86a24.28,24.28,0,0,0,27.72-8.28c2.56-3.58,2.74-19.32,0-27.64,0,0-76.3-21.63-77.73-22.16A15.68,15.68,0,0,0,392.23,364.28Z" style="fill:#FF725E"></path><path d="M391.15,379.84A35.85,35.85,0,0,1,406.65,405" style="fill:#FF725E"></path><path d="M473,414.06l-.32.51a15.8,15.8,0,0,1-1.07,1.39,24.06,24.06,0,0,1-5.21,4.37,26.56,26.56,0,0,1-10.12,3.85,23.31,23.31,0,0,1-6.85.09,22.52,22.52,0,0,1-7.38-2.22c-1.26-.53-2.45-1.25-3.72-1.9s-2.51-1.43-3.77-2.23q-3.79-2.35-7.78-5.12-8-5.52-16.64-12.42l-2.16-1.75-1.08-.9-.29-.27-.14-.13c.09,0-.25-.12.19.06.35-.37.1-.18.18-.22l0,.07.19.68c.56,1.8,1.12,3.63,1.7,5.49q1.76,5.55,3.59,11.37c2.48,7.76,5.06,15.86,7.73,24.23l.08.24-.25.08-26.77,8.06-.24.07-.08-.23c-1.71-4.58-3.48-9.45-5.25-14.4-3.84-10.74-7.49-21.26-10.7-31.53-1.61-5.13-3.11-10.2-4.31-15.25-.15-.63-.32-1.25-.44-1.89s-.23-1.27-.35-1.9a17.58,17.58,0,0,1-.37-3.83,13.46,13.46,0,0,1,2.12-7.23,17.43,17.43,0,0,1,12.16-7.35,19.1,19.1,0,0,1,7,.29l1.67.43,1.61.48,3.19.95,23.41,7,33.9,10.16,9.21,2.79,2.39.73c.54.17.81.27.81.27s-.28-.06-.83-.22l-2.4-.68-9.24-2.7-34-10-23.44-6.94-3.19-.94L394.1,365l-1.61-.4a18.85,18.85,0,0,0-6.79-.28,16.94,16.94,0,0,0-11.82,7.16,12.88,12.88,0,0,0-2,7,17,17,0,0,0,.37,3.75c.11.62.23,1.25.35,1.88s.29,1.25.43,1.88c1.2,5,2.7,10.08,4.32,15.21,3.21,10.25,6.86,20.77,10.7,31.51,1.77,4.94,3.54,9.82,5.24,14.39l-.31-.16,26.78-8-.17.31c-2.66-8.37-5.23-16.47-7.7-24.23q-1.83-5.83-3.58-11.39c-.57-1.85-1.13-3.69-1.69-5.5l-.19-.69,0-.1c.08-.06-.18.08.17-.29.47.19.15.06.26.12l.12.1.24.21,1.07.9,2.15,1.75c5.75,4.59,11.3,8.76,16.59,12.45,2.64,1.86,5.23,3.56,7.75,5.14,1.25.79,2.52,1.5,3.74,2.23s2.45,1.37,3.69,1.91a22.29,22.29,0,0,0,7.29,2.22,22.82,22.82,0,0,0,6.77-.06,26.51,26.51,0,0,0,10.07-3.75,24.37,24.37,0,0,0,5.23-4.28,16,16,0,0,0,1.1-1.36C472.83,414.22,473,414.06,473,414.06Z" style="fill:#263238"></path><path d="M394.5,385.47a9.49,9.49,0,0,1,2.2,1.19,32.22,32.22,0,0,1,4.74,3.74,28.76,28.76,0,0,1,3.92,4.59,8.13,8.13,0,0,1,1.22,2.19,19.77,19.77,0,0,1-1.52-2,36.77,36.77,0,0,0-4-4.43,45.4,45.4,0,0,0-4.59-3.81A17.5,17.5,0,0,1,394.5,385.47Z" style="fill:#263238"></path><path d="M403.53,382.52a7.87,7.87,0,0,1,1,2,34.54,34.54,0,0,1,1.55,5.1,33.23,33.23,0,0,1,.75,5.27,8.5,8.5,0,0,1,0,2.21c-.16,0-.33-3.35-1.24-7.37S403.38,382.58,403.53,382.52Z" style="fill:#263238"></path><path d="M462,381.48l9.66-2.78,6.31,1.14,3,10.54c3,9.32,2.33,14.66-3.85,18.75-1.81,1.2-3.53,1.86-4.78,1.33C468,408.62,462,381.48,462,381.48Z" style="fill:#455a64"></path><polygon points="471.66 378.7 410.01 368.56 410.15 369.38 471.66 387.78 471.66 378.7" style="fill:#455a64"></polygon></g><g id="freepik--character-1--inject-22"><path d="M86.88,426.67,80.82,448s19.31,13.39,18.57,17.43L58.24,455l8.11-33.55Z" style="fill:#455a64"></path><path d="M68.54,442.91a1.75,1.75,0,0,0-1.64,1.65,1.69,1.69,0,0,0,1.6,1.67,1.85,1.85,0,0,0,1.73-1.76c-.08-.86-1-1.75-1.85-1.54" style="fill:#e0e0e0"></path><g style="opacity:0.6000000000000001"><path d="M58.24,455l.95-3.35,39.1,11.25s1.63,1.28,1.1,2.53Z" style="fill:#fff"></path></g><path d="M81.54,447.9c-.06.2-1.08,0-2.23.45s-1.89,1.12-2.06,1,.43-1.23,1.83-1.7S81.63,447.73,81.54,447.9Z" style="fill:#263238"></path><path d="M85.41,450.81c0,.2-1,.33-1.85,1s-1.32,1.55-1.52,1.49,0-1.25,1.09-2.08S85.45,450.61,85.41,450.81Z" style="fill:#263238"></path><path d="M86.57,456.66c-.2,0-.22-1.09.57-2.07s1.84-1.19,1.88-1-.69.64-1.32,1.45S86.77,456.69,86.57,456.66Z" style="fill:#263238"></path><path d="M82.39,442.9c-.13.16-1-.35-2.14-.56s-2.13-.07-2.19-.27,1-.72,2.33-.45S82.53,442.76,82.39,442.9Z" style="fill:#263238"></path><path d="M72.46,431.68l-1,22.12s21.88,8.42,22.1,12.53L51.19,466l.09-34.54Z" style="fill:#455a64"></path><path d="M58.4,451.84a1.76,1.76,0,0,0-1.21,2,1.68,1.68,0,0,0,1.94,1.24A1.85,1.85,0,0,0,60.4,453a1.71,1.71,0,0,0-2.15-1.06" style="fill:#e0e0e0"></path><g style="opacity:0.6000000000000001"><path d="M51.19,466l.14-3.48,40.61,1.62s1.88.85,1.66,2.2Z" style="fill:#fff"></path></g><path d="M72.19,453.59c0,.21-1,.3-2.07,1s-1.57,1.55-1.76,1.46.13-1.29,1.38-2.07S72.24,453.4,72.19,453.59Z" style="fill:#263238"></path><path d="M76.63,455.49c0,.2-.86.55-1.57,1.44s-.92,1.82-1.12,1.8-.33-1.19.57-2.27S76.62,455.29,76.63,455.49Z" style="fill:#263238"></path><path d="M79.11,460.91c-.19,0-.47-1,.07-2.16s1.52-1.59,1.6-1.42-.51.79-.94,1.74S79.32,460.89,79.11,460.91Z" style="fill:#263238"></path><path d="M71.86,448.52c-.09.19-1-.1-2.21,0s-2.08.44-2.19.26.78-.93,2.16-1S72,448.36,71.86,448.52Z" style="fill:#263238"></path><path d="M46.22,269.75v17.5l4.64,68.16S48,388.48,46.2,407.15c-1.54,16.21,1,44.44,1,44.44h27l9.66-94.15,6-58.72L100.26,272Z" style="fill:#263238"></path><path d="M112.53,269.75l2.61,71.05c-.18,13.33-3.85,38.22-8.62,50.65L84.83,439.1l-1.25,4.29-16.13-3.95L79.44,271Z" style="fill:#263238"></path><path d="M93.85,288.57a2.3,2.3,0,0,1,0,.43c0,.3,0,.71,0,1.24,0,1.13,0,2.74,0,4.8,0,4.17,0,10.2-.13,17.65s-.36,16.32-.89,26.16-1.24,20.69-3.55,31.85C87.25,381.87,85,392.47,83,402.11s-3.78,18.33-5.11,25.66S75.59,441.05,75,445.18c-.31,2.06-.47,3.67-.62,4.75-.07.53-.13.94-.17,1.24a2,2,0,0,1-.08.42,2.31,2.31,0,0,1,0-.43c0-.3.06-.71.11-1.24.12-1.09.25-2.7.53-4.77.49-4.14,1.38-10.1,2.66-17.45s3-16,5-25.69,4.24-20.24,6.37-31.41c2.3-11.13,3-22,3.58-31.78s.82-18.69,1-26.14.25-13.47.3-17.64c0-2.06,0-3.67,0-4.8,0-.53,0-.94,0-1.24A3.42,3.42,0,0,1,93.85,288.57Z" style="fill:#455a64"></path><path d="M127.84,251.59a12.11,12.11,0,0,1,.4,4.09c-.2,2.09-.3,7.25-5.88,9s-10.85-2.43-12.55-4.32-1.51-8.08-1.51-8.08l9.17-4.08Z" style="fill:#FF725E"></path><path d="M64.45,172.86l-4.64,7.46-18.81,8,4.71,77.21,3.38,14,62.63-2.08,1.55-10.84V214.54c-1.42-13.36-7.87-21.66-13.86-24.95l-3.91-2.68L94,182l-5.52-5.17-17.69-4.59Z" style="fill:#FF725E"></path><g style="opacity:0.30000000000000004"><path d="M43.63,259.66a19.19,19.19,0,0,0,18.92,8.42c6.29-1.06,11.6-5.21,17.63-7.28,10.49-3.62,22.46-.74,32.8-4.77.2-1.78.08-4,.2-5.18-5.17-.27-10.68-.56-15.25-3l-4.15-1.53Z"></path></g><path d="M41,188.33s-8.93,7.64-6.34,27.56c2.4,18.5,6.66,44.28,12.34,47.27s17.94,1.49,26.91-3.59,35-18.84,35-18.84L98.14,221.59,63.45,235.05s-4.49-30.7-7.18-36" style="fill:#FF725E"></path><path d="M56.27,199.07s.1.19.27.58c.08.2.2.44.31.74l.34,1.05c.51,1.58,1.12,4,1.78,7.07,1.34,6.21,3,15.25,4.66,26.51l-.25-.15,34.67-13.5.19-.08.11.18c3.4,6.05,7,12.48,10.77,19.13l.13.23L109,241l-22.24,12-10.91,5.87c-1.79,1-3.58,2-5.43,2.76a45.89,45.89,0,0,1-5.67,2,37.54,37.54,0,0,1-11.57,1.34,16.94,16.94,0,0,1-5.56-1.17l-.65-.29a6,6,0,0,1-.63-.39,7,7,0,0,1-1-1,13.84,13.84,0,0,1-1.47-2.36,53.87,53.87,0,0,1-3.47-10c-.88-3.33-1.57-6.6-2.19-9.76-1.23-6.34-2.14-12.28-2.9-17.71s-1.43-10.38-1.23-14.75a36.79,36.79,0,0,1,2-11,24,24,0,0,1,3.29-6.25,13.41,13.41,0,0,1,1.19-1.4,3.73,3.73,0,0,1,.46-.42l-.43.45c-.27.31-.67.78-1.14,1.43a25.37,25.37,0,0,0-3.18,6.26,36.74,36.74,0,0,0-1.87,10.93c-.17,4.34.52,9.26,1.3,14.69s1.72,11.35,3,17.67c.63,3.16,1.33,6.42,2.21,9.73a53.11,53.11,0,0,0,3.46,9.94,13.78,13.78,0,0,0,1.42,2.28,6.29,6.29,0,0,0,.93.93,4.26,4.26,0,0,0,.55.34l.62.28a16.26,16.26,0,0,0,5.4,1.12A36.64,36.64,0,0,0,64.64,263a44.73,44.73,0,0,0,5.6-1.94c1.83-.79,3.57-1.78,5.37-2.74l10.92-5.88,22.25-12-.1.35L97.93,221.71l.29.1L63.51,235.22l-.21.09,0-.24c-1.66-11.25-3.22-20.31-4.49-26.51-.63-3.11-1.21-5.5-1.68-7.09-.12-.4-.22-.75-.32-1.06l-.28-.74C56.34,199.28,56.27,199.07,56.27,199.07Z" style="fill:#263238"></path><polygon points="59.26 210.41 81.79 208.93 86.77 218.3 61.52 222.84 59.26 210.41" style="fill:#FF725E"></polygon><path d="M59.26,210.41a8.21,8.21,0,0,1,.21.9c.12.63.29,1.46.5,2.5.42,2.19,1,5.25,1.74,9l-.23-.16,22.73-4.15,2.52-.45-.19.37c-1.74-3.3-3.42-6.45-5-9.37l.23.12-16.14.94-4.68.25-1.26,0h-.46a2.39,2.39,0,0,1,.4,0l1.2-.11,4.62-.37,16.29-1.19h.16l.07.14,5,9.36.17.31-.35.07-2.51.45-22.76,4-.19,0,0-.19c-.64-3.82-1.17-6.94-1.55-9.17-.17-1-.3-1.85-.4-2.46A7,7,0,0,1,59.26,210.41Z" style="fill:#263238"></path><path d="M63.45,235.05c.14.11-1.88,2.48-3.56,5.86s-2.4,6.42-2.58,6.37a6.93,6.93,0,0,1,.38-2,24.77,24.77,0,0,1,1.73-4.6,24.3,24.3,0,0,1,2.63-4.15A6.72,6.72,0,0,1,63.45,235.05Z" style="fill:#263238"></path><path d="M86.08,192.12a7.77,7.77,0,0,1-1.25-.89l-3.27-2.6.28,0a30.28,30.28,0,0,1-4.47,5.61l-.16.16-.18-.15-3.45-2.87c-3.7-3-7.16-5.64-9.68-7.5l-3-2.21a7,7,0,0,1-1.06-.85,7.05,7.05,0,0,1,1.18.69c.74.47,1.8,1.17,3.09,2.07,2.58,1.79,6.08,4.37,9.79,7.4,1.21,1,2.38,2,3.45,2.89H77a32.84,32.84,0,0,0,4.5-5.46l.12-.19.16.15L85,191.06A10.58,10.58,0,0,1,86.08,192.12Z" style="fill:#263238"></path><path d="M95.34,187.39a3.6,3.6,0,0,1,.18,1.25,18.24,18.24,0,0,1-.11,3.34l-.07.59-.34-.5a41.09,41.09,0,0,0-2.68-3.46c-.4-.47-.81-.91-1.21-1.33a8.19,8.19,0,0,0-.58-.59c-.2-.13-.17-.13-.35.06l-1.66,2.31a13.19,13.19,0,0,1-1.64,2.07,13.5,13.5,0,0,1,1.34-2.28l1.58-2.39a.65.65,0,0,1,1-.16c.26.22.42.4.64.62.41.42.83.87,1.24,1.35a31.16,31.16,0,0,1,2.66,3.55l-.42.1C95.37,189.23,95.23,187.39,95.34,187.39Z" style="fill:#263238"></path><path d="M55.24,196a12.36,12.36,0,0,1-1.4-1.66,18.09,18.09,0,0,0-3.69-3.58A12.06,12.06,0,0,0,45.41,189a15.32,15.32,0,0,1-2.14-.33,6.49,6.49,0,0,1,2.19,0,11,11,0,0,1,5,1.79,15.27,15.27,0,0,1,3.7,3.78A7.43,7.43,0,0,1,55.24,196Z" style="fill:#263238"></path><path d="M104.19,209.86a25,25,0,0,1-1.78-4.8,25.73,25.73,0,0,1-1.29-5,25.21,25.21,0,0,1,1.79,4.81A25.42,25.42,0,0,1,104.19,209.86Z" style="fill:#263238"></path><path d="M113.05,254a8.66,8.66,0,0,1,.2,2c.08,1.22.22,2.9.3,4.77a31.45,31.45,0,0,1-.1,4.81,5.59,5.59,0,0,1-.43,2,12.43,12.43,0,0,1,.06-2c0-1.22,0-2.9,0-4.76s-.16-3.55-.14-4.78A6.28,6.28,0,0,1,113.05,254Z" style="fill:#263238"></path><path d="M72.17,217a1.21,1.21,0,1,0,.3-.23" style="fill:#e0e0e0"></path><g style="opacity:0.30000000000000004"><polygon points="57.76 203.66 64.08 222.38 84.91 218.64 64.83 226.51 63.14 233 57.76 203.66"></polygon></g><g style="opacity:0.30000000000000004"><path d="M60.38,181.15,79,198l2.88-7.88,3,1-3.23-2.68s-3.54,5.44-4.48,5.54Z"></path></g><path d="M95.87,221.51a5.33,5.33,0,0,1-.38-1.13c-.23-.84-.53-1.89-.88-3.13-.74-2.64-1.81-6.27-3.12-10.25s-2.63-7.52-3.61-10.09c-.45-1.2-.84-2.21-1.15-3a5.92,5.92,0,0,1-.38-1.14,5.3,5.3,0,0,1,.56,1.06c.33.69.78,1.71,1.32,3,1.06,2.53,2.43,6.08,3.75,10.06s2.34,7.65,3,10.32c.33,1.33.57,2.42.72,3.17A4.89,4.89,0,0,1,95.87,221.51Z" style="fill:#263238"></path><path d="M95.6,200.72c3.52,3.51,12.44,12.67,12.44,12.67l2.39-1.44L97.86,198.53a1.58,1.58,0,0,0-2-.24h0A1.57,1.57,0,0,0,95.6,200.72Z" style="fill:#263238"></path><path d="M98.14,221.59l3-8.44a4.74,4.74,0,0,1,4.33-3.24,2.26,2.26,0,0,1,.45,0c1.8.2,11,.8,11,.8l3.55,4a1.85,1.85,0,0,1,0,2.41h0l1,7.17-2,1.37.2,5s-1.8,1.2-2.59.8l-.8-.4-1.2-1.2-3.39,4.79L107,237.36Z" style="fill:#ffbe9d"></path><path d="M120.48,217.49a16.07,16.07,0,0,0-1.29-1.4,6.11,6.11,0,0,0-1.71-1,13.15,13.15,0,0,0-2.48-.34,43,43,0,0,1-6.55-.87,40.63,40.63,0,0,1,6.6.35,11.4,11.4,0,0,1,2.59.41,5.49,5.49,0,0,1,1.8,1.21A3.15,3.15,0,0,1,120.48,217.49Z" style="fill:#eb996e"></path><path d="M120.28,224.09a14.21,14.21,0,0,0-.74-1.84,7.12,7.12,0,0,0-3.54-3,13.74,13.74,0,0,0-4.69-.79,10.09,10.09,0,0,1-2-.06,5.82,5.82,0,0,1,2-.3,11.56,11.56,0,0,1,4.89.67,6.94,6.94,0,0,1,3.68,3.28A3.14,3.14,0,0,1,120.28,224.09Z" style="fill:#eb996e"></path><path d="M119.38,230.25a3.83,3.83,0,0,1-.48-2,6.61,6.61,0,0,0-.45-2.06,2.58,2.58,0,0,0-1.89-1.43,35.24,35.24,0,0,0-4.77-.69,5.23,5.23,0,0,1-2-.46,15.46,15.46,0,0,1,2,.1,23.14,23.14,0,0,1,4.88.55,3.85,3.85,0,0,1,1.35.62,2.74,2.74,0,0,1,.84,1.12,6.2,6.2,0,0,1,.37,2.22C119.27,229.49,119.44,230.22,119.38,230.25Z" style="fill:#eb996e"></path><polygon points="124.37 214.4 84.83 255.24 86.35 256.78 114.68 253.59 152.8 217.27 152.76 215.53 124.37 214.4" style="fill:#455a64"></polygon><g style="opacity:0.30000000000000004"><path d="M126.93,240.06a7.45,7.45,0,0,0-5.71-1.91,10.47,10.47,0,0,0-5.63,2.38,7.6,7.6,0,0,0-2.8,4c-.66,2.83,1.22,5.79,3.78,7.16l.35-.41,9.74-7.82a2.74,2.74,0,0,0,1.13-1.44A2.28,2.28,0,0,0,126.93,240.06Z"></path></g><path d="M122.76,236.24s3.83.08,5.08.7,4.69,4.29,4.69,4.29,0,2.49-1,2.59a9.43,9.43,0,0,1,.2,1.69c.1,1.4.3,2.2-1.6,3.39,0,0,.2,2.3-.5,2.89a13.57,13.57,0,0,1-1.49,1.1s-2.19,2.69-3.49,2.49-3.17,1.4-3.17,1.4-7-2.92-6.3-3.75l2.44-2.7s-4.83-3.52-4.73-4.62.5-1.19.5-1.19-.2-2.1,1.49-2.3c0,0,1.3-2.59,2.59-2.69s10.07,3.09,10.07,3.09l-3.29-2.79s-3.29-.5-3.19-1.59S122.76,236.24,122.76,236.24Z" style="fill:#ffbe9d"></path><path d="M122.17,249.38c-.08.12-2-1-4.44-2.16a45.75,45.75,0,0,1-4.46-2.15,15.74,15.74,0,0,1,4.68,1.68A15.25,15.25,0,0,1,122.17,249.38Z" style="fill:#eb996e"></path><path d="M126.74,246.32a33.92,33.92,0,0,1-5.72-1.85,34,34,0,0,1-5.54-2.35A35.75,35.75,0,0,1,121.2,244,35.69,35.69,0,0,1,126.74,246.32Z" style="fill:#eb996e"></path><path d="M152.65,217.2a3,3,0,0,1-.52,0h-1.51l-5.67-.07-19.71-.38.18-.07L115.51,227c-8,8.25-15.25,15.7-20.54,21.15l-6.27,6.36L87,256.21a5.42,5.42,0,0,1-.63.57,5.45,5.45,0,0,1,.56-.65l1.65-1.78,6.15-6.48,20.43-21.25,9.93-10.25.07-.08h.11l19.71.57,5.66.21,1.51.07A1.81,1.81,0,0,1,152.65,217.2Z" style="fill:#263238"></path><path d="M104.2,135.87a7.5,7.5,0,0,0-4.86-2.5,4.77,4.77,0,0,0-3.15.24,3.77,3.77,0,0,0-1.62,3.64,15.19,15.19,0,0,0,1.21,4,7.23,7.23,0,0,1,.57,4.11l3.59,8.55a4.53,4.53,0,0,0,2.32-6.52,4.38,4.38,0,0,0,1.29-6.64C105.19,139.87,105.32,137.36,104.2,135.87Z" style="fill:#263238"></path><path d="M71.08,158.19l-.42-17.28-10.94-.5a3.65,3.65,0,0,0-1.31,6.45,4.5,4.5,0,0,0,.65,8.44,4.51,4.51,0,0,0,2.9,7.3c0,2,1.14,4.24,3.1,4.8s4.26-.93,5.18-2.87S71.13,160.34,71.08,158.19Z" style="fill:#263238"></path><path d="M59.42,138.5s1.08,14.3,2.48,18.66a44.17,44.17,0,0,0,4.48,9.06l33.36-10.36c1.13-7.72,2.3-15.48,1.82-21.56l-10.64-3.79Z" style="fill:#263238"></path><path d="M66.48,157.16a72,72,0,0,1-3.25-11.77,24.62,24.62,0,0,1,.8-12.06c.2-.59,2-4.5,2.6-4.44.44,0-.64,3.67-.41,4.05a21,21,0,0,1,2.53,12.18,55.62,55.62,0,0,1-2.27,12" style="fill:#263238"></path><path d="M89.64,183.93s0-9.68,0-9.68,9.86-1.14,10.36-10.93c.25-4.73,0-14.51-.41-23.35a18.26,18.26,0,0,0-17.54-17.49l-.94,0c-10.21.19-15.75,9-15.27,19.18l0,33.16L86,189.34Z" style="fill:#ffbe9d"></path><path d="M89.66,174.25A23.66,23.66,0,0,1,77.06,170s2.83,7.25,12.64,6.75Z" style="fill:#eb996e"></path><path d="M96.41,148.34A1.4,1.4,0,0,1,95,149.7a1.33,1.33,0,0,1-1.39-1.31A1.4,1.4,0,0,1,95,147,1.33,1.33,0,0,1,96.41,148.34Z" style="fill:#263238"></path><path d="M97.36,144c-.18.17-1.21-.65-2.72-.71s-2.64.66-2.79.47.11-.41.61-.74a3.81,3.81,0,0,1,2.24-.6,3.67,3.67,0,0,1,2.15.79C97.3,143.53,97.45,143.87,97.36,144Z" style="fill:#263238"></path><path d="M82.92,148.58a1.4,1.4,0,0,1-1.4,1.36,1.35,1.35,0,0,1-1.4-1.32,1.41,1.41,0,0,1,1.41-1.36A1.34,1.34,0,0,1,82.92,148.58Z" style="fill:#263238"></path><path d="M82.59,144c-.18.18-1.21-.65-2.72-.7s-2.63.65-2.79.46.11-.41.61-.74a3.85,3.85,0,0,1,2.24-.6,3.77,3.77,0,0,1,2.16.79C82.53,143.57,82.68,143.9,82.59,144Z" style="fill:#263238"></path><path d="M87.54,155.76a9.71,9.71,0,0,1,2.46-.35c.38,0,.75-.08.83-.34a2,2,0,0,0-.22-1.15q-.48-1.42-1-3c-1.41-4.23-2.42-7.7-2.25-7.76s1.46,3.33,2.87,7.56c.34,1,.67,2,1,3a2.28,2.28,0,0,1,.15,1.52,1,1,0,0,1-.66.54,2.65,2.65,0,0,1-.66.06A10.39,10.39,0,0,1,87.54,155.76Z" style="fill:#263238"></path><path d="M83.07,156.63c.24,0,.18,1.63,1.53,2.84s3.1,1.1,3.11,1.33-.4.3-1.14.29a4,4,0,0,1-2.59-1,3.55,3.55,0,0,1-1.19-2.38C82.76,157,83,156.61,83.07,156.63Z" style="fill:#263238"></path><path d="M83.28,138.81c-.16.4-1.66.15-3.43.29s-3.22.57-3.44.2c-.1-.18.16-.56.75-.93a5.74,5.74,0,0,1,2.58-.79,5.61,5.61,0,0,1,2.66.42C83,138.28,83.35,138.62,83.28,138.81Z" style="fill:#263238"></path><path d="M96.93,138.92c-.28.33-1.3-.06-2.55-.13s-2.31.14-2.54-.23c-.1-.17.08-.51.56-.81a3.47,3.47,0,0,1,2.09-.48,3.57,3.57,0,0,1,2,.76C96.92,138.4,97.05,138.76,96.93,138.92Z" style="fill:#263238"></path><path d="M66.37,148.91c-.16-.08-6.65-2.26-6.7,4.45s6.69,5.37,6.71,5.18S66.37,148.91,66.37,148.91Z" style="fill:#ffbe9d"></path><path d="M64.35,156s-.12.08-.32.17a1.11,1.11,0,0,1-.87,0,2.86,2.86,0,0,1-1.32-2.6,3.89,3.89,0,0,1,.34-1.67,1.36,1.36,0,0,1,.88-.89.6.6,0,0,1,.69.33c.09.18,0,.32.08.33s.15-.11.09-.39a.7.7,0,0,0-.26-.42.9.9,0,0,0-.64-.18,1.65,1.65,0,0,0-1.23,1,4,4,0,0,0-.42,1.87,3.05,3.05,0,0,0,1.69,2.91,1.3,1.3,0,0,0,1.07-.17C64.33,156.14,64.37,156,64.35,156Z" style="fill:#eb996e"></path><path d="M95.25,128.87c1.09-.6-2.17-4.11-4.84-5.32-4-1.82-10.19-2.94-13.91-1.88-4.47,1.28-8.18,3.51-10.42,7.59a26.33,26.33,0,0,0-2.94,13.47,8,8,0,0,0,1,4.09c.94,1.48,2.74,2.41,2.66,4.46a2.84,2.84,0,0,0,.7,2c1.23,1.31,2.73.08,3.42-1.15,1.47-2.63,1.63-5.77,1.75-8.78a19.71,19.71,0,0,0-.43-6.37c-.33-1.12-.86-2.17-1.13-3.31a4.08,4.08,0,0,1,.47-3.35,4.69,4.69,0,0,1,.55-.55A7,7,0,0,1,79,128.48c3.78,1.33,10.23,3.31,11.91,2a10.41,10.41,0,0,0,3-3Z" style="fill:#263238"></path><path d="M76.29,114.74c-.47.05-11.94,2.24-15.08,10.63s-2.38,11-2.38,11a5.32,5.32,0,0,0-1.22,1c-.49.54.11,3.23,1.6,3,11.29-4.55,24.47-4.6,39.12-3.66l11.23.24c3.13.47,4.27-.33,3-1.16-1-.64-9.8-4.52-9.8-4.52L101,129.91l-4.42-6.58s.6-.88-.51-1.66S85.62,113.76,76.29,114.74Z" style="fill:#FF725E"></path><path d="M101,129.91a3.64,3.64,0,0,1-.44,0l-1.25-.07c-1.09-.08-2.66-.12-4.61-.14A87.5,87.5,0,0,0,79.59,131a132.92,132.92,0,0,0-14.78,3.56c-1.87.54-3.37,1-4.41,1.34l-1.2.36-.43.12.41-.15,1.19-.4c1-.34,2.54-.84,4.4-1.4a124.6,124.6,0,0,1,14.79-3.61,83.54,83.54,0,0,1,15.16-1.31C98.62,129.61,101,129.91,101,129.91Z" style="fill:#263238"></path><g style="opacity:0.30000000000000004"><path d="M65.73,119.39s12.33-1.57,17.74,1.26l-.63-.34L88,122.76a3.23,3.23,0,0,0,2.74.42,24.21,24.21,0,0,0-7.77-4.49C77.86,116.78,69.73,115.76,65.73,119.39Z"></path></g><path d="M65.55,119.45a7.87,7.87,0,0,1,1.12-.68,15.06,15.06,0,0,1,3.34-1.3,18.3,18.3,0,0,1,5.28-.57,15.21,15.21,0,0,1,6.33,1.46,26.6,26.6,0,0,1,2.92,1.7c.9.6,1.8,1.14,2.61,1.74a18.22,18.22,0,0,0,2.33,1.59,5.45,5.45,0,0,0,2.36.55c3,.15,4.88-.42,4.76-.61a.55.55,0,0,1-.25.23,4.52,4.52,0,0,1-.94.28,16.5,16.5,0,0,1-3.58.24,5.48,5.48,0,0,1-2.42-.55,17.45,17.45,0,0,1-2.36-1.59c-.8-.59-1.71-1.13-2.61-1.73a28.17,28.17,0,0,0-2.9-1.68,15.13,15.13,0,0,0-6.25-1.46,18.53,18.53,0,0,0-5.25.53,16.54,16.54,0,0,0-3.34,1.23c-.38.19-.66.35-.85.46Z" style="fill:#263238"></path><g style="opacity:0.30000000000000004"><path d="M60,128.87a27.18,27.18,0,0,0,6.09-.86c2.34-.43,4.66-.75,7-1.29,1.76-.41,3.84-.77,5-2a2.57,2.57,0,0,1-.86,2.36,12.39,12.39,0,0,1-3.78,1.52,65.25,65.25,0,0,1-14,2.22,14.25,14.25,0,0,1,.56-2"></path></g><path d="M61.6,124.45c-1.41.56-2.28.94-2.36,2.12-.07,1,.09,2.21,1.06,2.41a2.73,2.73,0,0,0,.9,0l15.28-2.55a2.29,2.29,0,0,0,1.42-.6,1.53,1.53,0,0,0-.45-2.1,4.2,4.2,0,0,0-2.31-.6,50.66,50.66,0,0,0-13.54,1.35" style="fill:#FF725E"></path><path d="M77.66,126a1.47,1.47,0,0,0,.43-.65,1.91,1.91,0,0,0-.56-1.94,4.73,4.73,0,0,0-3-.78c-1.22,0-2.56.06-4,.15a40.68,40.68,0,0,0-7.13,1c-.89.21-1.61.44-2.1.59l-.57.18-.2.06s.06,0,.19-.09l.56-.22a20.34,20.34,0,0,1,2.09-.65,36.78,36.78,0,0,1,7.15-1.08c1.41-.09,2.76-.12,4-.13a4.81,4.81,0,0,1,3.12.85,2,2,0,0,1,.54,2.06,1.36,1.36,0,0,1-.33.51Z" style="fill:#263238"></path><polygon points="97.98 125.39 88.44 124.87 89.15 127.59 99.55 127.72 97.98 125.39" style="fill:#fff"></polygon><path d="M83.25,133.38s4.27-.51,9.55-1,9.58-.9,9.58-.85-4.27.51-9.56,1S83.25,133.43,83.25,133.38Z" style="fill:#263238"></path><rect x="41.67" y="268.32" width="73.47" height="12.27" style="fill:#455a64"></rect><path d="M43.92,274.25h34a0,0,0,0,1,0,0v34.48A6.92,6.92,0,0,1,71,315.65H50.84a6.92,6.92,0,0,1-6.92-6.92V274.25A0,0,0,0,1,43.92,274.25Z" style="fill:#455a64"></path><path d="M77.94,285.46a14.65,14.65,0,0,1-.14-2.13,24.76,24.76,0,0,0-.75-5.71,3.87,3.87,0,0,0-.88-1.58,9.52,9.52,0,0,0-1.6-1.25,10.13,10.13,0,0,0-4.26-1.35c-3.2-.24-6.79-.13-10.53-.1s-7.35-.3-10.48.39a6.87,6.87,0,0,0-3.9,2,6.72,6.72,0,0,0-1.24,3.63c-.23,2.43-.18,4.42-.22,5.79,0,.64,0,1.16,0,1.58a3.43,3.43,0,0,1,0,.55,2,2,0,0,1-.06-.55c0-.42,0-.94-.05-1.58,0-1.37-.12-3.35.06-5.82a7.14,7.14,0,0,1,1.27-3.87,7.22,7.22,0,0,1,4.14-2.17,22.45,22.45,0,0,1,5.12-.44c1.76,0,3.59,0,5.46,0,3.75,0,7.3-.13,10.58.14a10.51,10.51,0,0,1,4.43,1.46,9.63,9.63,0,0,1,1.66,1.34,4.08,4.08,0,0,1,1,1.75,22.47,22.47,0,0,1,.6,5.81c0,.64,0,1.16,0,1.58A3.16,3.16,0,0,1,77.94,285.46Z" style="fill:#263238"></path><path d="M77.69,289.09c0,.15-7.48.26-16.71.26s-16.71-.11-16.71-.26,7.48-.26,16.71-.26S77.69,289,77.69,289.09Z" style="fill:#263238"></path><path d="M53.66,316c-.15,0-.26-6.05-.26-13.51s.11-13.52.26-13.52.26,6.05.26,13.52S53.8,316,53.66,316Z" style="fill:#263238"></path><path d="M69,315.91c-.14,0-.26-6-.26-13.38s.12-13.39.26-13.39.26,6,.26,13.39S69.14,315.91,69,315.91Z" style="fill:#263238"></path><path d="M115.14,268.32l4.24,5.93s3.79,35.34,2.1,37-7.37,1.62-7.37,1.62l-1.55-42.31Z" style="fill:#455a64"></path><path d="M101.83,280.1a38.85,38.85,0,0,1-.16-11.92,55.61,55.61,0,0,1,.14,6A55,55,0,0,1,101.83,280.1Z" style="fill:#263238"></path><path d="M115.22,268.52a7.11,7.11,0,0,1,.45,2c.2,1.24.4,3,.51,4.89a10.32,10.32,0,0,1-.11,2.74,3.47,3.47,0,0,1-1.15,2,2.36,2.36,0,0,1-1.43.58c-.38,0-.56-.09-.56-.11a2.88,2.88,0,0,0,1.74-.75,3.17,3.17,0,0,0,.93-1.8,11.32,11.32,0,0,0,.06-2.63C115.46,271.61,115.07,268.54,115.22,268.52Z" style="fill:#263238"></path></g><g id="freepik--speech-bubble--inject-22"><path d="M452.51,274.1l4.68-4.42a20.53,20.53,0,1,0-7-2.4h0Z" style="fill:#fff"></path><path d="M452.51,274.1l-.15-.46c-.1-.3-.24-.74-.42-1.31-.38-1.16-.94-2.86-1.66-5.08l-.08.08h0a.06.06,0,0,0,.08,0,.06.06,0,0,0,0-.07,20.47,20.47,0,0,1-7.29-7,20.07,20.07,0,0,1-1.46-2.81,23.34,23.34,0,0,1-1-3.22,20.38,20.38,0,0,1,39.25-10.92,20,20,0,0,1,.77,8.8,20.43,20.43,0,0,1-7.55,13.34l-.7.53a4.88,4.88,0,0,1-.7.49l-1.43.89a29.44,29.44,0,0,1-2.91,1.31,20.43,20.43,0,0,1-10,1l-.05,0c-1.5,1.44-2.66,2.54-3.44,3.3l-.9.86-.3.3.3-.27.89-.83,3.53-3.27h-.05a20.35,20.35,0,0,0,10.09-.95,24.92,24.92,0,0,0,2.93-1.31l1.45-.88a5.07,5.07,0,0,0,.72-.49l.7-.54a20.67,20.67,0,0,0,6.92-22.4,21.06,21.06,0,0,0-4.88-8.16,20.63,20.63,0,0,0-8.45-5.26,8.38,8.38,0,0,0-1.21-.35l-1.21-.29-1.22-.18a7.34,7.34,0,0,0-1.23-.13l-1.22-.06a10.1,10.1,0,0,0-1.23,0c-.4,0-.81,0-1.21.07l-1.19.18a20.32,20.32,0,0,0-8.62,3.55,20.56,20.56,0,0,0-8.06,21.67,23.32,23.32,0,0,0,1.06,3.25,21,21,0,0,0,1.48,2.83,20.56,20.56,0,0,0,7.4,7l0-.12h0a.07.07,0,0,0-.08.05,0,0,0,0,0,0,0l1.75,5.1.44,1.29C452.45,274,452.51,274.1,452.51,274.1Z" style="fill:#263238"></path><polygon points="449.6 249.05 452.69 246.28 458.07 251.6 467.83 242.5 470.39 245.57 457.35 257.23 449.6 249.05" style="fill:#263238"></polygon></g></svg>